<?xml version="1.0" encoding="iso-8859-1"?>
<!-- Uploaded to: SVG Repo, www.svgrepo.com, Generator: SVG Repo Mixer Tools -->
<!DOCTYPE svg PUBLIC "-//W3C//DTD SVG 1.1//EN" "http://www.w3.org/Graphics/SVG/1.1/DTD/svg11.dtd">
<svg fill="#000000" height="800px" width="800px" version="1.1" id="Capa_1" xmlns="http://www.w3.org/2000/svg" xmlns:xlink="http://www.w3.org/1999/xlink" 
	 viewBox="0 0 239.831 239.831" xml:space="preserve">
<g>
	<path d="M237.683,161.513c-4.271-7.098-13.486-9.392-20.586-5.12c-25.596,15.399-63.248,20.187-100.725,12.81
		c-38.199-7.52-71.543-26.656-89.197-51.187c-4.836-6.724-14.211-8.253-20.936-3.414c-6.725,4.839-8.252,14.213-3.414,20.937
		c22.316,31.012,61.592,54.011,107.752,63.098c13.709,2.699,27.342,4.026,40.588,4.026c30.477,0,58.898-7.03,81.396-20.565
		C239.659,177.828,241.952,168.611,237.683,161.513z"/>
	<path d="M77.861,88.963c14.162,2.789,27.912-6.435,30.699-20.6c2.789-14.164-6.436-27.91-20.598-30.698
		C73.8,34.876,60.05,44.099,57.263,58.263C54.474,72.428,63.701,86.175,77.861,88.963z"/>
	<path d="M182.419,109.55c14.166,2.788,27.91-6.435,30.699-20.601c2.789-14.165-6.432-27.912-20.6-30.7
		c-14.162-2.789-27.91,6.435-30.699,20.601C159.031,93.014,168.257,106.761,182.419,109.55z"/>
</g>
</svg>